<svg xmlns="http://www.w3.org/2000/svg" xmlns:inkscape="http://www.inkscape.org/namespaces/inkscape" width="2000" height="510">
    <g transform="translate(108,108)">
        <path style="fill:#e31c23;fill-opacity:1;fill-rule:nonzero;stroke:none" d="m -103.71983,386.95304 372.95456,0 0,-116.78073 -237.280633,0 0,-363.879833 -135.673927,0 0,480.660563 z m 0,0" id="path3005"/>
        <path style="fill:#e31c23;fill-opacity:1;fill-rule:nonzero;stroke:none" d="m 579.85657,396.62276 c 151.29425,0 264.65334,-112.02018 264.65334,-250.07434 l 0,-1.33891 c 0,-138.054155 -112.02018,-248.58675 -263.16569,-248.58675 -151.14551,0 -264.50461,112.020243 -264.50461,249.92566 l 0,1.48759 c 0,137.90541 111.87147,248.58675 263.01696,248.58675 z m 1.48765,-120.20231 c -74.23395,0 -125.26033,-60.3987 -125.26033,-129.87203 l 0,-1.33891 c 0,-69.324649 49.68754,-128.384439 123.77268,-128.384439 74.9777,0 126.0041,60.398637 126.0041,129.723349 l 0,1.48759 c 0,69.32459 -49.68755,128.38444 -124.51645,128.38444 z m 0,0" id="path3007"/>
        <path style="fill:#e31c23;fill-opacity:1;fill-rule:nonzero;stroke:none" d="m 949.47872,386.95304 135.67388,0 0,-145.6412 58.1672,0 1.3389,0 98.6314,145.6412 156.7986,0 -116.9296,-167.50971 C 1344.1529,194.0045 1384.022,145.20951 1384.022,71.719457 l 0,-1.338848 c 0,-47.307401 -14.7277,-84.49868 -43.4395,-111.871503 -32.8771,-33.025875 -84.6474,-52.216629 -159.4763,-52.216629 l -231.62748,0 0,480.660563 z m 135.67388,-249.9256 0,-115.44188 88.9617,0 c 45.3733,0 73.4899,19.339494 73.4899,56.977117 l 0,1.487649 c 0,34.959804 -26.6289,56.977114 -72.8949,56.977114 l -89.5567,0 z m 0,0" id="path3009"/>
        <path style="fill:#e31c23;fill-opacity:1;fill-rule:nonzero;stroke:none" d="m 1486.9378,386.95304 397.5008,0 0,-113.35915 -263.1658,0 0,-76.16781 235.0491,0 0,-105.028281 -235.0491,0 0,-72.894972 259.5954,0 0,-113.21035 -393.9304,0 0,480.660563 z m 0,0" id="path3011"/>
    </g>
</svg>